# xmcd
#
# Track frame offsets:
#	150
#	32812
#	43947
#	62392
#	78542
#	93485
#	108382
#	121330
#	139420
#	157035
#	168600
#	181955
#	194805
#	203325
#	222567
#	238657
#	249787
#	269747
#	334010
#
# Disc length: 4642 seconds
#
# Revision: 2
# Processed by: cddbd v1.4PL0 Copyright (c) Steve Scherf et al.
# Submitted via: EZCDDA 4.3.2
#
DISCID=1f122013
DTITLE=Doors - The Best Of The Doors [CD2]
DYEAR=1900
DGENRE=
TTITLE0=Riders on the Storm
TTITLE1=Break on Through
TTITLE2=Roadhouse Blues
TTITLE3=Soul Kitchen
TTITLE4=Love her Madly
TTITLE5=Alabama Song
TTITLE6=Peace Frog
TTITLE7=Waiting for the Sun
TTITLE8=Who Scared You
TTITLE9=The Cristal Ship
TTITLE10=Wishful Sinful
TTITLE11=Love Street
TTITLE12=Wintertime Love
TTITLE13=The Spy
TTITLE14=Back Door Man
TTITLE15=My Eyes Have Seen You
TTITLE16=Five to One
TTITLE17=The End
TTITLE18=Traccia 19
EXTD=
EXTT0=
EXTT1=
EXTT2=
EXTT3=
EXTT4=
EXTT5=
EXTT6=
EXTT7=
EXTT8=
EXTT9=
EXTT10=
EXTT11=
EXTT12=
EXTT13=
EXTT14=
EXTT15=
EXTT16=
EXTT17=
EXTT18=
PLAYORDER=
